<svg width="27" height="27" viewBox="0 0 27 27" fill="none" xmlns="http://www.w3.org/2000/svg">
<path d="M24.9598 4.16901H6.55466L6.19201 1.91449C6.09931 1.33841 5.66778 0.920929 5.16493 0.920929H1.44821C1.15966 0.920929 0.92572 1.19362 0.92572 1.52994V1.93595C0.92572 2.27228 1.15966 2.54497 1.44821 2.54497H4.87573L7.9204 21.4724C7.4701 22.0494 7.19558 22.816 7.19558 23.6575C7.19558 25.4513 8.44319 26.9056 9.98218 26.9056C11.5212 26.9056 12.7688 25.4513 12.7688 23.6575C12.7693 23.0872 12.6404 22.5269 12.3951 22.0334H18.7157C18.4704 22.5269 18.3415 23.0872 18.342 23.6575C18.342 25.4513 19.5896 26.9056 21.1286 26.9056C22.6676 26.9056 23.9152 25.4513 23.9152 23.6575C23.9152 22.7443 23.5915 21.9198 23.0711 21.3296C22.9583 20.8099 22.555 20.4094 22.0572 20.4094H9.1671L8.64461 17.1613H23.0732C23.5681 17.1613 23.9952 16.7565 24.0962 16.1917L25.9829 5.63546C26.118 4.87907 25.6226 4.16901 24.9598 4.16901ZM11.3755 23.6575C11.3755 24.553 10.7505 25.2815 9.98218 25.2815C9.2139 25.2815 8.58888 24.553 8.58888 23.6575C8.58888 22.762 9.2139 22.0334 9.98218 22.0334C10.7505 22.0334 11.3755 22.762 11.3755 23.6575ZM21.1286 25.2815C20.3603 25.2815 19.7353 24.553 19.7353 23.6575C19.7353 22.762 20.3603 22.0334 21.1286 22.0334C21.8969 22.0334 22.5219 22.762 22.5219 23.6575C22.5219 24.553 21.8969 25.2815 21.1286 25.2815ZM22.7899 15.5373H8.38337L6.8159 5.79305H24.5316L22.7899 15.5373Z" fill="black"/>
</svg>
