<svg width="31" height="31" viewBox="0 0 31 31" fill="none" xmlns="http://www.w3.org/2000/svg">
<path d="M15.1529 18.3788C16.8078 18.3788 18.157 17.0321 18.157 15.3759C18.157 14.7222 17.9431 14.1186 17.5891 13.6256C17.0435 12.8691 16.1565 12.373 15.1547 12.373C14.1523 12.373 13.266 12.8685 12.7192 13.625C12.3639 14.118 12.1518 14.7216 12.1512 15.3753C12.1494 17.0315 13.4974 18.3788 15.1529 18.3788Z" fill="black"/>
<path d="M21.7104 11.7025V9.1854V8.81079L21.3339 8.812L18.818 8.81985L18.8277 11.7122L21.7104 11.7025Z" fill="black"/>
<path d="M15.1535 0.375977C6.88254 0.375977 0.153503 7.10501 0.153503 15.376C0.153503 23.6463 6.88254 30.376 15.1535 30.376C23.4239 30.376 30.1535 23.6463 30.1535 15.376C30.1535 7.10501 23.4251 0.375977 15.1535 0.375977ZM23.6843 13.6256V20.6102C23.6843 22.4295 22.2052 23.908 20.3871 23.908H9.91988C8.10122 23.908 6.62273 22.4295 6.62273 20.6102V13.6256V10.143C6.62273 8.3243 8.10122 6.84581 9.91988 6.84581H20.3865C22.2052 6.84581 23.6843 8.3243 23.6843 10.143V13.6256Z" fill="black"/>
<path d="M19.8198 15.3761C19.8198 17.9482 17.7268 20.0424 15.1535 20.0424C12.5802 20.0424 10.4878 17.9482 10.4878 15.3761C10.4878 14.7574 10.6111 14.1659 10.831 13.6257H8.2843V20.6103C8.2843 21.513 9.0172 22.2441 9.91928 22.2441H20.3859C21.2868 22.2441 22.0209 21.513 22.0209 20.6103V13.6257H19.473C19.6947 14.1659 19.8198 14.7574 19.8198 15.3761Z" fill="black"/>
</svg>
