<svg width="26" height="27" viewBox="0 0 26 27" fill="none" xmlns="http://www.w3.org/2000/svg">
<path d="M18.1715 15.5373C16.5649 15.5373 15.7923 16.3493 13.1556 16.3493C10.5189 16.3493 9.752 15.5373 8.13975 15.5373C3.98596 15.5373 0.615906 18.5925 0.615906 22.3582V24.4695C0.615906 25.8144 1.8195 26.9056 3.30299 26.9056H23.0083C24.4918 26.9056 25.6954 25.8144 25.6954 24.4695V22.3582C25.6954 18.5925 22.3253 15.5373 18.1715 15.5373ZM23.904 24.4695C23.904 24.9161 23.5009 25.2815 23.0083 25.2815H3.30299C2.81036 25.2815 2.4073 24.9161 2.4073 24.4695V22.3582C2.4073 19.4908 4.97682 17.1613 8.13975 17.1613C9.23697 17.1613 10.3286 17.9733 13.1556 17.9733C15.9771 17.9733 17.0743 17.1613 18.1715 17.1613C21.3345 17.1613 23.904 19.4908 23.904 22.3582V24.4695ZM13.1556 13.9132C17.1135 13.9132 20.3212 11.0052 20.3212 7.41709C20.3212 3.82897 17.1135 0.920929 13.1556 0.920929C9.19779 0.920929 5.99008 3.82897 5.99008 7.41709C5.99008 11.0052 9.19779 13.9132 13.1556 13.9132ZM13.1556 2.54497C16.117 2.54497 18.5298 4.73235 18.5298 7.41709C18.5298 10.1018 16.117 12.2892 13.1556 12.2892C10.1942 12.2892 7.78147 10.1018 7.78147 7.41709C7.78147 4.73235 10.1942 2.54497 13.1556 2.54497Z" fill="black"/>
</svg>
