<svg width="26" height="27" viewBox="0 0 26 27" fill="none" xmlns="http://www.w3.org/2000/svg">
<path d="M25.7635 24.717L19.7515 18.5561C19.6376 18.4394 19.489 18.3785 19.3306 18.3785H18.6769C20.2368 16.5262 21.1827 14.1156 21.1827 11.4767C21.1827 5.64564 16.5722 0.920929 10.8821 0.920929C5.19199 0.920929 0.581482 5.64564 0.581482 11.4767C0.581482 17.3077 5.19199 22.0324 10.8821 22.0324C13.4572 22.0324 15.8095 21.0631 17.6171 19.4645V20.1344C17.6171 20.2968 17.6815 20.449 17.7904 20.5658L23.8024 26.7267C24.0352 26.9652 24.4115 26.9652 24.6443 26.7267L25.7635 25.5797C25.9962 25.3412 25.9962 24.9555 25.7635 24.717ZM10.8821 19.5965C6.50433 19.5965 2.95854 15.9629 2.95854 11.4767C2.95854 6.99048 6.50433 3.35687 10.8821 3.35687C15.2598 3.35687 18.8056 6.99048 18.8056 11.4767C18.8056 15.9629 15.2598 19.5965 10.8821 19.5965Z" fill="black"/>
</svg>
