<svg width="101" height="101" viewBox="0 0 101 101" fill="none" xmlns="http://www.w3.org/2000/svg">
<path d="M64.1091 54.75H69.9685V60.6094H64.1091V54.75Z" fill="white"/>
<path d="M50.6206 54.75H56.48V60.6094H50.6206V54.75Z" fill="white"/>
<path d="M37.1317 54.75H42.9911V60.6094H37.1317V54.75Z" fill="white"/>
<path d="M100.188 24.0581C100.188 11.3192 89.8243 0.955322 77.0853 0.955322C67.7909 0.955322 59.7622 6.4729 56.0993 14.404H20.5626L19.2177 0.955322H0.187988V6.8147H13.9149L14.756 15.2237L20.1075 68.7403C16.3438 70.0588 13.6366 73.6446 13.6366 77.8526C13.6366 83.1758 17.9675 87.5065 23.2907 87.5065H27.8235C27.3233 88.6719 27.0454 89.9545 27.0454 91.3012C27.0454 96.6245 31.3761 100.955 36.6993 100.955C42.0226 100.955 46.3534 96.6245 46.3534 91.3012C46.3534 89.9547 46.0755 88.6721 45.5753 87.5065H61.5255C61.0253 88.6719 60.7474 89.9545 60.7474 91.3012C60.7474 96.6245 65.0782 100.955 70.4015 100.955C75.7247 100.955 80.0556 96.6245 80.0556 91.3012C80.0556 89.9547 79.7776 88.6721 79.2774 87.5065H86.4604V81.6471H23.2907C21.1983 81.6471 19.496 79.945 19.496 77.8526C19.496 75.7602 21.1983 74.0579 23.2907 74.0579H86.461L89.5144 43.5247C95.9284 39.4153 100.188 32.2249 100.188 24.0581ZM36.6991 95.0959C34.6067 95.0959 32.9046 93.3936 32.9046 91.3012C32.9046 89.2088 34.6067 87.5067 36.6991 87.5067C38.7915 87.5067 40.4938 89.2088 40.4938 91.3012C40.4938 93.3936 38.7915 95.0959 36.6991 95.0959ZM70.4011 95.0959C68.3087 95.0959 66.6064 93.3936 66.6064 91.3012C66.6064 89.2088 68.3087 87.5067 70.4011 87.5067C72.4935 87.5067 74.1958 89.2088 74.1958 91.3012C74.1958 93.3936 72.4935 95.0959 70.4011 95.0959ZM77.0853 6.8147C86.5935 6.8147 94.3286 14.55 94.3286 24.0581C94.3286 33.5661 86.5935 41.3014 77.0853 41.3014C67.5772 41.3014 59.8421 33.5661 59.8421 24.0581C59.8421 14.55 67.5772 6.8147 77.0853 6.8147ZM81.1581 68.1987H25.9419L21.1485 20.2633H54.296C54.0911 21.4985 53.9827 22.7657 53.9827 24.0581C53.9827 36.7969 64.3466 47.1608 77.0853 47.1608C79.2552 47.1608 81.3558 46.8596 83.3483 46.2977L81.1581 68.1987Z" fill="white"/>
<path d="M88.2984 20.5877L84.1552 16.4446L75.1431 25.4567L70.0154 20.3292L65.8722 24.4723L75.1431 33.7432L88.2984 20.5877Z" fill="white"/>
</svg>
