<svg width="85" height="98" viewBox="0 0 85 98" fill="none" xmlns="http://www.w3.org/2000/svg">
<path d="M48.649 86.0688H38.6967C38.1787 86.0688 37.6819 86.2746 37.3156 86.6409C36.9493 87.0072 36.7436 87.504 36.7436 88.022C36.7436 88.54 36.9493 89.0368 37.3156 89.403C37.6819 89.7693 38.1787 89.9751 38.6967 89.9751H48.649C49.167 89.9751 49.6638 89.7693 50.0301 89.403C50.3964 89.0368 50.6022 88.54 50.6022 88.022C50.6022 87.504 50.3964 87.0072 50.0301 86.6409C49.6638 86.2746 49.167 86.0688 48.649 86.0688Z" fill="white"/>
<path d="M82.625 31.3772C78.6869 31.3772 75.2828 32.4793 72.7812 34.5641C72.5506 34.7565 72.315 34.9696 72.0781 35.2022V5.20532C72.0742 3.85972 71.5379 2.57036 70.5865 1.61887C69.635 0.667386 68.3456 0.131113 67 0.127197H20.125C18.7794 0.131113 17.49 0.667386 16.5386 1.61887C15.5871 2.57036 15.0508 3.85972 15.0469 5.20532V10.4006L14.8049 10.1586C13.2664 8.62018 11.1798 7.75588 9.0041 7.75588C6.82839 7.75588 4.74178 8.62018 3.20332 10.1586C1.66486 11.6971 0.800559 13.7837 0.800559 15.9594C0.800559 18.1351 1.66486 20.2217 3.20332 21.7602L11.6553 30.2122C10.2873 30.6111 9.04677 31.3594 8.0558 32.3834C7.06483 33.4073 6.35756 34.6717 6.00361 36.052C5.64966 37.4323 5.66122 38.881 6.03716 40.2555C6.41311 41.6299 7.14047 42.8829 8.14766 43.8909L12.9555 48.6987C11.429 48.8844 9.9854 49.4956 8.78958 50.4624C7.59376 51.4293 6.69383 52.7128 6.19251 54.1666C5.6912 55.6204 5.60868 57.1858 5.95439 58.6842C6.3001 60.1826 7.0601 61.5537 8.14766 62.6409L11.3926 65.8864C9.86606 66.0721 8.42251 66.6833 7.22669 67.6501C6.03087 68.617 5.13094 69.9005 4.62962 71.3543C4.12831 72.8081 4.04579 74.3735 4.3915 75.8719C4.73721 77.3703 5.49721 78.7414 6.58477 79.8286L15.0469 88.2913V92.7053C15.0484 94.0517 15.5839 95.3424 16.5359 96.2944C17.4879 97.2465 18.7787 97.7819 20.125 97.7834H57.625C58.143 97.7834 58.6398 97.5777 59.0061 97.2114C59.3724 96.8451 59.5781 96.3483 59.5781 95.8303V77.0803C59.582 75.4437 59.965 73.8302 60.6969 72.3663C61.4289 70.9024 62.4899 69.628 63.7969 68.6428L71.2969 63.0178C71.5383 62.8348 71.7343 62.5987 71.8698 62.3277C72.0053 62.0568 72.0766 61.7583 72.0781 61.4553V45.8303C72.0781 38.0516 76.8262 35.8821 80.6719 35.4006V95.8303C80.6719 96.3483 80.8776 96.8451 81.2439 97.2114C81.6102 97.5777 82.107 97.7834 82.625 97.7834C83.143 97.7834 83.6398 97.5777 84.0061 97.2114C84.3724 96.8451 84.5781 96.3483 84.5781 95.8303V33.3303C84.5781 32.8123 84.3724 32.3155 84.0061 31.9493C83.6398 31.583 83.143 31.3772 82.625 31.3772ZM20.125 4.03345H67C67.3107 4.03376 67.6086 4.15732 67.8283 4.37702C68.048 4.59673 68.1716 4.89462 68.1719 5.20532V11.0561H18.9531V5.20532C18.9534 4.89462 19.077 4.59673 19.2967 4.37702C19.5164 4.15732 19.8143 4.03376 20.125 4.03345ZM4.70606 15.9592C4.66699 12.1756 9.3957 10.22 12.0428 12.9204L15.0469 15.9247V28.0799L5.96484 18.9979C5.56451 18.5998 5.24713 18.1263 5.03105 17.6047C4.81498 17.0831 4.70452 16.5238 4.70606 15.9592ZM10.9094 35.0522C12.509 33.3852 15.3867 33.3852 16.9861 35.0522L25.825 43.8911C29.7064 48.0596 23.9008 53.8506 19.7482 49.9678L10.9094 41.129C10.1048 40.3224 9.653 39.2298 9.653 38.0906C9.653 36.9514 10.1048 35.8587 10.9094 35.0522ZM28.5871 41.129L26.4643 39.0059C26.8682 35.1227 28.6118 31.5014 31.3953 28.7639C34.1789 26.0265 37.8289 24.3437 41.7182 24.0046C45.6076 23.6656 49.4937 24.6914 52.709 26.9059C55.9243 29.1204 58.2681 32.3854 59.3379 36.1401C60.4077 39.8948 60.1367 43.9048 58.5715 47.4815C57.0063 51.0581 54.2445 53.9781 50.7605 55.7399C47.2765 57.5017 43.2878 57.9954 39.4794 57.1362C35.671 56.2769 32.2806 54.1184 29.8906 51.0313C30.7913 49.4668 31.1516 47.6492 30.916 45.8594C30.6804 44.0695 29.8619 42.4071 28.5871 41.129ZM10.9094 53.8022C12.509 52.1352 15.3867 52.1352 16.9861 53.8022L25.825 62.6411C29.7064 66.8096 23.9008 72.6006 19.7482 68.7178L10.9094 59.879C10.1048 59.0724 9.653 57.9798 9.653 56.8406C9.653 55.7014 10.1048 54.6087 10.9094 53.8022ZM9.34688 70.9897C10.9465 69.3227 13.8242 69.3227 15.4236 70.9897L24.2625 79.8286C28.1439 83.9971 22.3383 89.7881 18.1857 85.9053L9.34688 77.0665C8.54233 76.2599 8.0905 75.1673 8.0905 74.0281C8.0905 72.8889 8.54233 71.7962 9.34688 70.9897ZM18.9531 92.7053V90.7522C19.6915 90.9639 20.4559 91.0713 21.224 91.0711C22.3603 91.0716 23.4842 90.8357 24.5244 90.3786C25.5646 89.9215 26.4984 89.2531 27.2665 88.4158C28.0346 87.5785 28.6201 86.5906 28.9861 85.5149C29.352 84.4392 29.4902 83.2992 29.392 82.1672H55.6719V93.8772H20.125C19.8143 93.8769 19.5164 93.7533 19.2967 93.5336C19.077 93.3139 18.9534 93.016 18.9531 92.7053ZM61.4531 65.5178C59.6621 66.8678 58.208 68.6143 57.205 70.6203C56.2019 72.6264 55.6772 74.8375 55.6719 77.0803V78.26H28.01C27.7199 77.832 27.39 77.4323 27.0246 77.0665L23.7793 73.8211C25.3058 73.6354 26.7494 73.0242 27.9452 72.0574C29.141 71.0905 30.0409 69.807 30.5423 68.3532C31.0436 66.8995 31.1261 65.334 30.7804 63.8356C30.4347 62.3372 29.6747 60.9661 28.5871 59.879L23.7793 55.0711C24.981 54.9282 26.1355 54.5183 27.1582 53.8713C30.1101 57.47 34.1889 59.9686 38.7359 60.9636C43.2828 61.9585 48.0324 61.3917 52.2175 59.3547C56.4026 57.3178 59.7789 53.9295 61.8011 49.7372C63.8233 45.5449 64.3733 40.7934 63.3623 36.25C62.3513 31.7066 59.8383 27.6367 56.2292 24.6975C52.6201 21.7583 48.1256 20.1214 43.4717 20.0513C38.8177 19.9812 34.2759 21.482 30.5799 24.3111C26.884 27.1403 24.2495 31.1327 23.1021 35.6436C23.1021 35.6436 19.2301 31.8069 18.9531 31.592V14.9624H68.1719V60.4788L61.4531 65.5178Z" fill="white"/>
<path d="M41.4141 42.7053H44.7344C45.4682 42.7312 46.1634 43.0409 46.6734 43.5692C47.1834 44.0974 47.4684 44.8031 47.4684 45.5374C47.4684 46.2716 47.1834 46.9773 46.6734 47.5055C46.1634 48.0338 45.4682 48.3435 44.7344 48.3694H39.8107C39.1285 48.385 38.6389 47.7225 38.7389 47.0711C38.7481 46.5531 38.5513 46.0527 38.1915 45.6798C37.8318 45.307 37.3387 45.0923 36.8207 45.0831C36.3027 45.0738 35.8022 45.2707 35.4294 45.6304C35.0566 45.9901 34.8419 46.4832 34.8326 47.0012L34.8289 47.2036C34.817 47.8653 34.937 48.5228 35.182 49.1377C35.427 49.7525 35.7921 50.3124 36.2559 50.7846C36.7197 51.2568 37.2729 51.6319 37.8833 51.8879C38.4936 52.1439 39.1489 52.2757 39.8107 52.2756H41.2188V53.4475C41.2188 53.9655 41.4245 54.4623 41.7908 54.8286C42.1571 55.1949 42.6539 55.4006 43.1719 55.4006C43.6899 55.4006 44.1867 55.1949 44.553 54.8286C44.9192 54.4623 45.125 53.9655 45.125 53.4475V52.2633C46.8573 52.1371 48.4741 51.3471 49.6382 50.0581C50.8024 48.7691 51.4241 47.0804 51.3737 45.3442C51.3233 43.6081 50.6048 41.9583 49.3679 40.7389C48.1309 39.5196 46.4711 38.8246 44.7344 38.7991H41.4141C40.6889 38.7991 39.9934 38.511 39.4806 37.9982C38.9678 37.4854 38.6797 36.7899 38.6797 36.0647C38.6797 35.3395 38.9678 34.644 39.4806 34.1312C39.9934 33.6184 40.6889 33.3303 41.4141 33.3303H46.26C46.9479 33.3877 47.3059 33.7617 47.3342 34.4522C47.3232 34.7085 47.3627 34.9644 47.4506 35.2053C47.5385 35.4463 47.6729 35.6676 47.8463 35.8566C48.1965 36.2383 48.684 36.4653 49.2016 36.4875C49.7191 36.5098 50.2243 36.3256 50.606 35.9754C50.9877 35.6252 51.2147 35.1377 51.2369 34.6202C51.2658 33.9486 51.1585 33.278 50.9214 32.649C50.6843 32.02 50.3224 31.4454 49.8574 30.96C49.3924 30.4745 48.834 30.0882 48.2157 29.8242C47.5975 29.5602 46.9322 29.4241 46.26 29.4241H45.125V28.2522C45.125 27.7342 44.9192 27.2374 44.553 26.8711C44.1867 26.5048 43.6899 26.2991 43.1719 26.2991C42.6539 26.2991 42.1571 26.5048 41.7908 26.8711C41.4245 27.2374 41.2188 27.7342 41.2188 28.2522V29.429C39.4758 29.4807 37.8232 30.2161 36.6179 31.4762C35.4126 32.7362 34.7514 34.4198 34.777 36.1633C34.8027 37.9069 35.5132 39.5703 36.755 40.7944C37.9969 42.0184 39.6704 42.7048 41.4141 42.7053Z" fill="white"/>
</svg>
