<svg width="109" height="59" viewBox="0 0 109 59" fill="none" xmlns="http://www.w3.org/2000/svg">
<path d="M30.5934 13.7174C30.5934 15.074 29.5635 15.9422 27.8148 15.9422H26.4425V11.6824C26.6977 11.6357 27.1769 11.5673 28.0263 11.5673C29.635 11.5891 30.5934 12.3016 30.5934 13.7174ZM28.0606 26.9883C27.7525 26.9883 27.544 27.0225 27.4351 27.0505V29.0264C27.5627 29.0606 27.7276 29.0637 27.9423 29.0637C28.7482 29.0637 29.2399 28.6592 29.2399 27.9747C29.2399 27.3586 28.8136 26.9883 28.0606 26.9883ZM33.8201 26.9883C33.5121 26.9883 33.3098 27.0225 33.2009 27.0505V29.0264C33.3285 29.0606 33.4903 29.0637 33.705 29.0637C34.5109 29.0637 34.9994 28.6592 34.9994 27.9747C34.9994 27.3586 34.5825 26.9883 33.8201 26.9883ZM108.613 32.2096L108.091 40.3743L105.835 41.9364V46.9678H101.811C102.048 47.7986 102.188 48.6698 102.188 49.5753C102.188 54.7405 97.9748 58.9536 92.8002 58.9536C87.635 58.9536 83.425 54.7405 83.425 49.5753C83.425 48.9903 83.4903 48.4085 83.593 47.8422C82.9427 48.0351 82.3857 48.0133 82.3857 48.0133H65.1973C64.6808 46.9678 65.8943 45.9223 65.8943 45.9223H81.1784C82.9178 44.7057 80.998 43.8375 80.998 43.8375H65.3747C63.6353 44.3603 63.2899 47.1421 63.2899 47.1421H28.3966V44.018C28.3966 44.018 27.4756 44.018 26.0287 44.018C27.1769 45.5769 27.8739 47.4937 27.8739 49.5753C27.8739 54.7405 23.6639 58.9536 18.4987 58.9536C13.3272 58.9536 9.11724 54.7405 9.11724 49.5753C9.11724 47.4937 9.80801 45.5769 10.9562 44.018C10.477 44.018 10.0196 44.018 9.63688 44.018C4.77658 44.018 0.613281 42.456 0.613281 42.456V36.8987H7.02937H7.34986C7.05737 36.3635 6.89557 35.7474 6.89557 35.094V4.77781C6.89557 2.66816 8.60694 0.956787 10.7197 0.956787H59.1329C61.2425 0.956787 62.9508 2.66816 62.9508 4.77781V35.094C62.9508 35.7474 62.7859 36.3635 62.4996 36.8987H66.0779V4.94584H86.3935L96.6337 19.3587C105.318 20.7496 103.933 24.0479 103.933 24.0479H101.671V28.3885H106.012V31.1703L108.613 32.2096ZM48.8211 24.5333H58.6723V21.6675H52.3278V17.9989H58.0065V15.1612H52.3278V11.9531H58.3581V9.08736H48.8273V24.5333H48.8211ZM20.2754 29.7856V32.5829H21.7845V25.8961H20.2754V28.4663H17.7861V25.8961H16.2677V32.5829H17.7861V29.7856H20.2754ZM10.9064 24.5333H14.4132V18.3257H19.9518V15.4848H14.4132V11.9562H20.347V9.09047H10.9064V24.5333ZM12.5431 32.6856C14.3789 32.6856 15.2471 31.7335 15.2471 30.6102C15.2471 29.6674 14.687 29.0544 13.5046 28.6188C12.6458 28.2858 12.2693 28.0991 12.2693 27.6666C12.2693 27.3212 12.5867 27.0257 13.2401 27.0257C13.8935 27.0257 14.3696 27.2155 14.6372 27.3461L14.9764 26.1233C14.575 25.9428 14.018 25.7872 13.265 25.7872C11.6843 25.7872 10.7353 26.6585 10.7353 27.8004C10.7353 28.7713 11.4572 29.3873 12.5742 29.7732C13.377 30.0657 13.6882 30.299 13.6882 30.716C13.6882 31.1547 13.3241 31.441 12.6271 31.441C11.983 31.441 11.3607 31.2356 10.9531 31.024L10.6419 32.278C11.0278 32.4865 11.7776 32.6856 12.5431 32.6856ZM23.7075 49.5753C23.7075 46.694 21.3676 44.3603 18.4987 44.3603C15.6236 44.3603 13.2868 46.694 13.2868 49.5753C13.2868 52.4473 15.6236 54.7841 18.4987 54.7841C21.3676 54.781 23.7075 52.4473 23.7075 49.5753ZM24.6254 25.8961H23.1069V32.5829H24.6254V25.8961ZM30.7365 27.9373C30.7365 27.2839 30.4472 26.7238 30.024 26.3878C29.5728 26.0331 28.9163 25.8526 27.9828 25.8526C27.0586 25.8526 26.4021 25.9148 25.9385 25.9926V32.5892H27.4351V30.1964C27.5752 30.2212 27.7556 30.2275 27.9454 30.2275C28.8416 30.2275 29.6039 30.0097 30.1204 29.5243C30.5218 29.1477 30.7365 28.5908 30.7365 27.9373ZM31.0757 24.5333H34.6509C34.3491 23.939 33.8668 21.9227 33.3907 20.1802C32.9987 18.7551 32.4075 17.7282 31.3308 17.2926V17.2273C32.6564 16.7512 34.0535 15.3945 34.0535 13.4249C34.0535 11.9998 33.5556 10.9263 32.6377 10.1951C31.5362 9.32384 29.9337 8.97846 27.6436 8.97534C25.7891 8.97534 24.112 9.12159 22.9918 9.29895V24.5333H26.4519V18.4626H27.5067C28.9256 18.4843 29.5946 19.0102 30.0022 20.9332C30.4534 22.8343 30.8237 24.0976 31.0757 24.5333ZM36.5085 27.9373C36.5085 27.2839 36.2191 26.7238 35.796 26.3878C35.3479 26.0331 34.6882 25.8526 33.7548 25.8526C32.8306 25.8526 32.1741 25.9148 31.7105 25.9926V32.5892H33.2071V30.1964C33.344 30.2212 33.5245 30.2275 33.7237 30.2275C34.6136 30.2275 35.379 30.0097 35.8955 29.5243C36.2876 29.1477 36.5085 28.5908 36.5085 27.9373ZM42.9931 25.8961H41.4808V28.4663H38.9885V25.8961H37.4762V32.5829H38.9885V29.7856H41.4808V32.5829H42.9931V25.8961ZM45.8277 25.8961H44.3124V32.5829H45.8277V25.8961ZM46.4345 21.6675H40.0868V17.9989H45.7686V15.1612H40.0868V11.9531H46.1171V9.08736H36.5863V24.5333H46.4376L46.4345 21.6675ZM52.6732 25.8961H51.2886V27.8533C51.2886 28.8584 51.3197 29.7545 51.4161 30.6413H51.3819C51.0894 29.8883 50.6911 29.0544 50.2897 28.3481L48.9051 25.8961H47.1377V32.5829H48.5255V30.5697C48.5255 29.4776 48.5068 28.5379 48.4663 27.6511L48.4975 27.6386C48.8211 28.4259 49.2567 29.2878 49.6581 30.0034L51.0894 32.5798H52.6732V25.8961ZM59.5747 28.7557H57.0823V29.9412H58.1154V31.3383C57.994 31.3974 57.7202 31.4379 57.3717 31.4379C56.1333 31.4379 55.2683 30.6226 55.2683 29.2442C55.2683 27.7942 56.2235 27.0817 57.4775 27.0817C58.2118 27.0817 58.6723 27.2123 59.0395 27.3741L59.36 26.1606C59.0364 25.9988 58.3674 25.8308 57.5024 25.8308C55.3118 25.8308 53.6876 27.1034 53.6814 29.3282C53.6689 30.3053 54.005 31.1827 54.6211 31.7615C55.2372 32.3465 56.1177 32.6638 57.3406 32.6638C58.2274 32.6638 59.1017 32.446 59.5778 32.2873V28.7557H59.5747ZM76.3213 21.6146H70.2505V24.0448C78.2318 24.051 76.3213 21.6146 76.3213 21.6146ZM91.9507 21.4435L84.3118 8.25034H70.9413L70.764 19.1907L83.089 19.0133L84.4798 21.4435H91.9507ZM98.0277 49.5753C98.0277 46.694 95.6878 44.3603 92.8127 44.3603C89.9376 44.3603 87.6039 46.694 87.6039 49.5753C87.6039 52.4473 89.9376 54.7841 92.8127 54.7841C95.6878 54.781 98.0277 52.4473 98.0277 49.5753Z" fill="white"/>
</svg>
