<svg width="17" height="18" viewBox="0 0 17 18" fill="none" xmlns="http://www.w3.org/2000/svg">
<path d="M1.17761 7.20201H15.3421C15.6161 7.20201 15.8533 7.12288 16.0535 6.96447C16.2535 6.80611 16.354 6.61859 16.354 6.40185C16.354 6.18511 16.2536 5.99768 16.0535 5.8391L8.97122 0.237539C8.77111 0.0793547 8.53407 0 8.25988 0C7.98568 0 7.74864 0.0793547 7.54837 0.237539L0.466101 5.8391C0.265826 5.9975 0.165771 6.18511 0.165771 6.40185C0.165771 6.61854 0.265826 6.80611 0.466101 6.96447C0.666597 7.12288 0.903638 7.20201 1.17761 7.20201Z" fill="black"/>
<path d="M15.3421 10.4032H1.17761C0.903417 10.4032 0.666376 10.4824 0.466101 10.6406C0.265826 10.799 0.165771 10.9865 0.165771 11.2033C0.165771 11.42 0.265826 11.6076 0.466101 11.7659L7.54837 17.3674C7.74886 17.5258 7.98591 17.6051 8.25988 17.6051C8.53385 17.6051 8.77111 17.5258 8.97122 17.3674L16.0535 11.7659C16.2535 11.6076 16.354 11.42 16.354 11.2032C16.354 10.9865 16.2536 10.799 16.0535 10.6406C15.8534 10.4822 15.6161 10.4032 15.3421 10.4032Z" fill="black"/>
</svg>
