<svg width="31" height="31" viewBox="0 0 31 31" fill="none" xmlns="http://www.w3.org/2000/svg">
<path d="M15.3508 0.375977C7.06678 0.375977 0.350769 7.09168 0.350769 15.376C0.350769 23.6603 7.06678 30.376 15.3508 30.376C23.6348 30.376 30.3508 23.6603 30.3508 15.376C30.3508 7.09168 23.6348 0.375977 15.3508 0.375977ZM22.9596 16.9983C23.6587 17.6811 24.3983 18.3238 25.026 19.0773C25.304 19.4106 25.5661 19.7552 25.7656 20.1428C26.0504 20.6956 25.7932 21.3017 25.2985 21.3345L22.2254 21.3339C21.4318 21.3996 20.8002 21.0795 20.2677 20.5369C19.8426 20.1045 19.4483 19.6426 19.0388 19.1954C18.8716 19.0119 18.6954 18.8391 18.4855 18.7031C18.0666 18.4306 17.7026 18.5141 17.4626 18.9517C17.218 19.3971 17.1621 19.8906 17.1388 20.3862C17.1053 21.1108 16.8868 21.3002 16.1598 21.3342C14.6062 21.407 13.1321 21.1713 11.7621 20.388C10.5535 19.6972 9.61808 18.7222 8.80294 17.6182C7.21563 15.4662 5.99998 13.1043 4.9077 10.6745C4.66187 10.1273 4.84172 9.83449 5.4454 9.82314C6.44836 9.8038 7.45133 9.80626 8.4543 9.82222C8.86248 9.82866 9.13256 10.0622 9.28939 10.4474C9.83138 11.7809 10.4958 13.0496 11.3285 14.2263C11.5504 14.5397 11.7769 14.8521 12.0994 15.0734C12.4554 15.3177 12.7267 15.2369 12.8946 14.8395C13.002 14.5869 13.0484 14.3168 13.0717 14.0462C13.1515 13.119 13.161 12.1921 13.0229 11.2687C12.937 10.6908 12.6119 10.3176 12.0359 10.2083C11.7425 10.1528 11.7854 10.0441 11.9282 9.87654C12.1758 9.58682 12.4079 9.40759 12.8716 9.40759L16.3436 9.40697C16.8908 9.51439 17.0136 9.75992 17.0879 10.3111L17.0909 14.1695C17.0845 14.3828 17.198 15.0151 17.581 15.1547C17.888 15.256 18.0905 15.0098 18.274 14.8156C19.1067 13.932 19.6999 12.8891 20.2312 11.8097C20.4657 11.3337 20.6679 10.8411 20.8643 10.3476C21.0104 9.98273 21.2375 9.80319 21.6494 9.80933L24.9928 9.81332C25.0913 9.81332 25.1914 9.81424 25.289 9.83112C25.8525 9.92749 26.0068 10.1699 25.8325 10.7196C25.5581 11.5832 25.025 12.3026 24.5039 13.0239C23.9453 13.796 23.3496 14.5412 22.7966 15.3167C22.2884 16.0257 22.3286 16.3826 22.9596 16.9983Z" fill="black"/>
</svg>
